<?xml version="1.0" standalone="no"?><!DOCTYPE svg PUBLIC "-//W3C//DTD SVG 1.1//EN" "http://www.w3.org/Graphics/SVG/1.1/DTD/svg11.dtd"><svg t="1734773706063" class="icon" viewBox="0 0 1024 1024" version="1.1" xmlns="http://www.w3.org/2000/svg" p-id="8225" xmlns:xlink="http://www.w3.org/1999/xlink" width="200" height="200"><path d="M445.506494 821.962038l-1.022978-0.511489c-118.665335-29.666334-205.106893-143.728272-205.106893-271.600399 0-137.59041 97.182817-251.140859 233.238762-275.692308v169.814186l0.511488 1.534466c8.695305 34.26973 26.597403 53.706294 50.125874 53.706293 26.085914 0 43.988012-18.413586 43.988012-43.988012V286.945055c91.556444 15.856144 169.302697 75.188811 209.198801 160.607393 4.091908 12.275724 12.787213 20.971029 24.03996 25.062937 11.764236 4.091908 25.062937 2.045954 37.338662-5.626374 11.764236-4.603397 20.45954-12.787213 24.03996-23.528472 4.091908-12.275724 2.045954-25.574426-6.137862-38.361638l-14.321679-28.643357c42.965035-38.361638 73.142857-76.723277 96.671329-123.780219 8.695305-16.879121 2.045954-41.430569-14.833167-58.821179l-1.534465-1.534466-2.045954-1.022977c-16.879121-8.695305-41.430569-2.045954-58.821179 14.833167l-1.022977 1.022977-1.022977 1.534466c-19.948052 35.292707-42.453546 71.096903-70.585415 96.15984-19.436563-18.925075-38.873127-37.85015-58.821179-50.637363 1.022977-2.045954 1.534466-4.603397 1.534466-8.183816 0-4.603397 1.534466-10.22977 2.557442-15.856144 1.534466-7.160839 3.58042-14.321678 3.58042-21.994006 0-114.573427-93.602398-208.175824-208.175824-208.175824-114.573427 1.022977-219.94006 103.320679-219.94006 215.336663 0 12.275724 0 26.597403 6.649351 40.919081-24.551449 15.344655-44.4995 31.200799-63.936064 49.102897-23.016983-20.971029-45.010989-51.66034-63.936064-89.510489l-1.022977-1.534466c-9.718282-14.321678-22.505495-23.528472-35.804196-24.551448-9.206793-1.022977-18.413586 2.045954-25.574426 8.183816-12.275724 5.114885-21.482517 14.833167-24.03996 26.597403-2.557443 10.741259 0.511489 21.482517 7.672328 29.666333 26.597403 52.683317 57.798202 93.090909 94.113886 121.734266-25.574426 39.384615-42.965035 83.372627-50.637363 129.918082h-102.297702c-26.085914 0-43.988012 18.413586-43.988012 43.988012 0 26.085914 18.413586 43.988012 43.988012 43.988012H159.072927c5.626374 37.338661 11.764236 75.7003 26.597403 109.97003-51.148851 40.407592-92.067932 91.044955-115.596404 143.728272-8.183816 16.879121-2.045954 41.430569 15.344655 58.30969l3.58042 3.580419h3.068931c2.557443 2.557443 7.160839 6.137862 14.833167 6.137863 18.413586 0 34.781219-9.718282 42.965035-26.085915l0.511488-0.511488c14.833167-34.781219 45.010989-74.165834 80.815185-106.38961 48.07992 62.913087 118.153846 108.435564 194.877123 126.337662l1.534466 0.511488H435.276723c20.45954 0 36.315684-12.275724 43.476524-33.758241 7.672328-23.528472-5.114885-43.988012-33.246753-53.706294z m77.746253-726.313686c68.539461 0 119.688312 51.66034 119.688312 119.688311-45.010989-17.390609-84.395604-25.574426-126.337662-25.574425-43.988012 0-83.372627 6.137862-119.688312 19.436563 3.58042-63.936064 57.798202-113.55045 126.337662-113.550449z" p-id="8226" fill="#1296db"></path><path d="M1006.609391 949.322677L932.955045 875.668332s-0.511489-0.511489 0-1.022977c61.378621-91.556444 51.66034-210.733267-25.062937-293.082917-44.4995-44.4995-102.809191-69.050949-163.164835-69.050949s-118.665335 24.551449-163.164835 69.050949-69.050949 102.809191-69.050949 163.164835 24.551449 118.665335 69.050949 163.164835c41.942058 41.942058 103.320679 68.027972 160.607392 68.027972 45.010989 0 91.044955-15.344655 127.36064-42.453547h1.022977l74.165834 74.165835c9.206793 9.206793 19.436563 12.787213 32.223776 12.787212 13.298701 0 23.528472-3.068931 33.246753-14.833166 13.298701-15.856144 11.764236-40.919081-3.580419-56.263737zM854.697303 856.231768c-30.689311 30.689311-70.585415 47.056943-111.504496 46.033966-38.361638-1.022977-74.165834-17.390609-99.74026-45.522477l-0.511488-0.511489c-61.378621-61.378621-61.378621-157.026973 0-217.894106 28.131868-28.131868 67.516484-44.4995 105.878122-44.4995s78.257742 16.879121 105.878122 44.4995c60.867133 60.867133 60.867133 156.515485 0 217.894106z" p-id="8227" fill="#1296db"></path></svg>