<?xml version="1.0" standalone="no"?><!DOCTYPE svg PUBLIC "-//W3C//DTD SVG 1.1//EN" "http://www.w3.org/Graphics/SVG/1.1/DTD/svg11.dtd"><svg t="1742984327081" class="icon" viewBox="0 0 1024 1024" version="1.1" xmlns="http://www.w3.org/2000/svg" p-id="1535" xmlns:xlink="http://www.w3.org/1999/xlink" width="200" height="200"><path d="M874.24 399.616c24.704 0 44.288 20.864 42.624 45.44l-30.848 466.048a85.312 85.312 0 0 1-85.12 79.744H281.472a85.312 85.312 0 0 1-85.312-85.376V442.24c0-23.552 19.072-42.624 42.688-42.624h635.456z" fill="#2489DB" p-id="1536"></path><path d="M873.28 910.272l30.848-466.048a29.888 29.888 0 0 0-29.824-31.808H238.72a29.888 29.888 0 0 0-29.824 29.824v463.232c0 40.064 32.448 72.576 72.512 72.576h519.424c38.208 0 69.824-29.632 72.32-67.776z m43.584-465.216a42.688 42.688 0 0 0-42.56-45.44H238.72a42.688 42.688 0 0 0-42.624 42.624v463.232c0 47.168 38.208 85.376 85.312 85.376h519.424c44.928 0 82.176-34.88 85.12-79.744l30.848-466.048z" fill="#0970CA" p-id="1537"></path><path d="M179.392 666.496l486.976 169.92a30.016 30.016 0 0 0 38.208-18.496l187.904-543.68a29.76 29.76 0 0 0-17.92-37.696L392.32 59.84a30.016 30.016 0 0 0-38.656 18.176L161.088 628.544a29.76 29.76 0 0 0 18.304 37.952zM396.672 47.808a42.88 42.88 0 0 0-55.168 26.048L148.992 624.384a42.496 42.496 0 0 0 26.176 54.144l486.912 169.984a42.88 42.88 0 0 0 54.592-26.432l187.968-543.744a42.496 42.496 0 0 0-25.6-53.76L396.672 47.808z" fill="#B5B4B4" p-id="1538"></path><path d="M347.52 86.144a41.472 41.472 0 0 1 53.44-25.216l466.624 171.008c21.12 7.68 32.128 30.848 24.768 52.032l-181.76 526.08a41.472 41.472 0 0 1-52.864 25.6l-471.104-164.48a41.088 41.088 0 0 1-25.344-52.416l186.24-532.608z" fill="#E4E4E4" p-id="1539"></path><path d="M177.152 741.824l512.448 64.64a29.952 29.952 0 0 0 33.344-25.216l71.68-480a29.824 29.824 0 0 0-6.4-23.36l-100.608-122.624a29.888 29.888 0 0 0-19.456-10.688l-400.512-48.896a29.952 29.952 0 0 0-33.28 25.472l-83.008 586.944a29.824 29.824 0 0 0 25.792 33.728zM269.184 82.944a42.752 42.752 0 0 0-47.488 36.48l-83.008 586.88a42.56 42.56 0 0 0 36.864 48.256l512.448 64.64c23.04 2.944 44.16-13.12 47.616-36.096l71.68-480a42.56 42.56 0 0 0-9.216-33.28L697.6 147.136a42.624 42.624 0 0 0-27.84-15.232l-400.576-48.96z" fill="#B5B4B4" p-id="1540"></path><path d="M230.784 131.072a41.28 41.28 0 0 1 45.824-35.2l386.56 47.232c10.432 1.28 20.032 6.592 26.752 14.72l97.024 118.4c7.36 8.96 10.56 20.608 8.896 32l-69.12 463.296a41.28 41.28 0 0 1-46.016 34.752l-494.464-62.4a41.088 41.088 0 0 1-35.584-46.464l80.128-566.4z" fill="#F8F8F8" p-id="1541"></path><path d="M283.84 424.576a22.4 22.4 0 0 1 25.344-19.072l204.672 27.2a22.336 22.336 0 1 1-6.144 44.16l-204.736-27.2a22.336 22.336 0 0 1-19.136-25.088zM297.472 336.128a22.4 22.4 0 0 1 25.152-19.2l333.888 45.12a22.336 22.336 0 1 1-5.76 44.16L316.8 361.152a22.336 22.336 0 0 1-19.328-24.96z" fill="#727584" p-id="1542"></path><path d="M407.04 222.592a44.928 44.928 0 0 1-43.392 46.336 44.928 44.928 0 0 1-46.656-43.2 44.928 44.928 0 0 1 43.52-46.336 44.928 44.928 0 0 1 46.592 43.2z" fill="#0051A5" p-id="1543"></path><path d="M932.608 910.912l22.08-292.672a51.2 51.2 0 0 0-51.072-55.04H523.904a34.112 34.112 0 0 1-24.96-10.88L405.952 452.544a72.512 72.512 0 0 0-53.056-23.04H120.384a51.2 51.2 0 0 0-51.136 54.272l25.792 426.112a72.512 72.512 0 0 0 72.448 68.096h692.8c37.952 0 69.504-29.248 72.32-67.072z m34.816-291.712A64 64 0 0 0 903.68 550.4H523.904a21.312 21.312 0 0 1-15.616-6.784L415.36 443.776a85.312 85.312 0 0 0-62.464-27.072H120.384a64 64 0 0 0-63.936 67.84l25.856 426.112a85.312 85.312 0 0 0 85.12 80.192h692.864c44.672 0 81.728-34.432 85.12-78.976l22.016-292.672z" fill="#0970CA" p-id="1544"></path><path d="M895.68 560.512c36.224 0 61.696 25.856 58.944 61.248l-21.376 280.576c0 48.96-38.208 76.736-76.16 76.736H174.848c-57.6 0-80.576-40-80.576-77.952l-26.24-407.808c-1.92-29.504 9.792-66.24 63.04-64.768l226.304 1.28c23.04 0 44.032 17.152 59.712 33.664L507.264 557.44a20.928 20.928 0 0 0 15.168 6.464l373.248-3.392z" fill="#1984E2" p-id="1545"></path><path d="M901.44 560.32c35.712 0 58.496 30.272 55.808 65.92l-22.528 235.52a81.92 81.92 0 0 1-81.6 75.776H174.464a81.92 81.92 0 0 1-81.728-76.928l-24.768-366.976c-2.176-35.328 16.32-67.712 61.312-65.088h223.168c22.72 0 41.6 11.2 57.088 27.84l94.976 100.48a20.48 20.48 0 0 0 14.976 6.528l381.952-3.072z" fill="#39ABFF" p-id="1546"></path></svg>