<?xml version="1.0" standalone="no"?><!DOCTYPE svg PUBLIC "-//W3C//DTD SVG 1.1//EN" "http://www.w3.org/Graphics/SVG/1.1/DTD/svg11.dtd"><svg t="1734773554558" class="icon" viewBox="0 0 1024 1024" version="1.1" xmlns="http://www.w3.org/2000/svg" p-id="2621" xmlns:xlink="http://www.w3.org/1999/xlink" width="200" height="200"><path d="M395.801418 864.22695c-130.723404-14.524823-254.184397-65.361702-254.184397-123.460993V653.617021c50.836879 43.574468 130.723404 72.624113 225.134752 87.148936 0-21.787234 0-43.574468 7.262411-65.361702-123.460993-21.787234-232.397163-65.361702-232.397163-123.460993V472.056738c65.361702 50.836879 167.035461 79.886525 290.496454 87.148936 14.524823-21.787234 36.312057-43.574468 58.099291-58.099291C315.914894 493.843972 141.617021 435.744681 141.617021 363.120567v-58.09929c72.624113 58.099291 210.609929 94.411348 355.858156 94.411347 145.248227 0 283.234043-36.312057 355.858156-94.411347V363.120567c0 29.049645-29.049645 58.099291-72.624113 79.886525 21.787234 7.262411 43.574468 21.787234 65.361702 29.049646h7.262411v7.262411c21.787234 7.262411 43.574468 29.049645 58.099291 50.836879V196.085106C911.432624 87.148936 729.87234 0 490.212766 0S76.255319 87.148936 76.255319 196.085106v537.41844c0 101.673759 145.248227 181.560284 355.858156 196.085106-14.524823-21.787234-29.049645-43.574468-36.312057-65.361702zM497.475177 65.361702c167.035461 0 355.858156 58.099291 355.858156 130.723404S664.510638 334.070922 497.475177 334.070922c-167.035461 0-355.858156-58.099291-355.858156-130.723404S330.439716 65.361702 497.475177 65.361702z" fill="#1296db" p-id="2622"></path><path d="M737.134752 922.326241l-94.411348-72.624113h-14.524822c-7.262411 0-7.262411 7.262411-7.262412 14.524822v43.574468c-43.574468-21.787234-65.361702-65.361702-72.624113-108.93617 0-14.524823-14.524823-21.787234-29.049646-21.787234s-21.787234 14.524823-21.787234 29.049646c7.262411 43.574468 29.049645 87.148936 58.099291 116.198581 21.787234 14.524823 43.574468 36.312057 65.361702 43.574468v43.574468c0 7.262411 0 7.262411 7.262412 7.262412 7.262411 7.262411 7.262411 7.262411 14.524822 7.262411l94.411348-72.624113c0-14.524823 7.262411-21.787234 0-29.049646 7.262411 0 7.262411 0 0 0z m167.035461-196.085106l43.574468-21.787234v-7.262412c0-7.262411 0-7.262411-7.262411-14.524822l-116.198582-43.574468h-14.524823c-7.262411 0-7.262411 7.262411-7.262411 7.262411v123.460993c0 7.262411 0 7.262411 7.262411 7.262411h14.524823l36.312057-21.787234c0 43.574468-14.524823 94.411348-58.099291 123.460993-14.524823 14.524823-14.524823 21.787234-7.262411 36.312057 14.524823 14.524823 21.787234 14.524823 36.312056 0 50.836879-43.574468 79.886525-116.198582 72.624114-188.822695zM664.510638 653.617021c0-7.262411 0-7.262411-7.262411-14.524822l-36.312057-14.524823c43.574468-21.787234 87.148936-29.049645 130.723404-14.524823 14.524823 7.262411 29.049645 0 36.312057-14.524823 7.262411-14.524823 0-29.049645-14.524822-36.312056-65.361702-21.787234-145.248227-7.262411-196.085107 36.312056l-50.836879-21.787234h-7.262412c0 7.262411-7.262411 7.262411 0 14.524823l14.524823 123.460993s0 7.262411 7.262411 7.262411h14.524823L664.510638 653.617021c0 7.262411 0 0 0 0z" fill="#1296db" p-id="2623"></path></svg>