<?xml version="1.0" standalone="no"?><!DOCTYPE svg PUBLIC "-//W3C//DTD SVG 1.1//EN" "http://www.w3.org/Graphics/SVG/1.1/DTD/svg11.dtd"><svg t="1745852387439" class="icon" viewBox="0 0 1054 1024" version="1.1" xmlns="http://www.w3.org/2000/svg" p-id="4179" xmlns:xlink="http://www.w3.org/1999/xlink" width="205.859375" height="200"><path d="M356.773647 154.654118a17.769412 17.769412 0 0 0-11.745882 4.276706 237.146353 237.146353 0 0 1-79.36 39.484235 120.259765 120.259765 0 0 1-34.69553 4.096 307.802353 307.802353 0 0 1-51.049411-4.608h-3.192471a17.769412 17.769412 0 0 0-17.769412 16.022588 1147.030588 1147.030588 0 0 0 2.288941 216.847059c13.854118 105.321412 181.097412 180.585412 189.138824 183.808a20.48 20.48 0 0 0 7.258353 1.415529 19.576471 19.576471 0 0 0 7.137882-1.415529c7.107765-3.222588 174.531765-78.486588 188.566588-183.988706 7.740235-72.041412 8.463059-144.685176 2.138353-216.847059a17.769412 17.769412 0 0 0-17.769411-16.022588h-3.011765c-16.956235 2.891294-34.093176 4.397176-51.260235 4.427294a126.313412 126.313412 0 0 1-35.599059-3.915294 238.049882 238.049882 0 0 1-79.691294-39.152941 17.769412 17.769412 0 0 0-11.745883-4.427294h0.361412zM230.640941 237.929412c15.36 0.391529 30.72-1.475765 45.537883-5.51153 28.611765-8.402824 55.808-21.112471 80.594823-37.737411a292.683294 292.683294 0 0 0 80.594824 37.737411 157.455059 157.455059 0 0 0 45.537882 5.51153c12.619294-0.060235 25.208471-0.843294 37.737412-2.319059a1079.777882 1079.777882 0 0 1-3.584 190.343529c-8.884706 67.463529-112.609882 130.108235-160.105412 152.696471-47.676235-22.588235-151.401412-85.052235-160.135529-152.696471-6.927059-63.186824-8.041412-126.915765-3.373177-190.343529 12.468706 1.505882 24.997647 2.258824 37.526588 2.319059h-0.331294z" fill="#17abe3" p-id="4180"></path><path d="M470.648471 282.744471a17.769412 17.769412 0 0 0-12.649412 5.180235l-124.536471 125.771294-64.240941-63.337412a17.769412 17.769412 0 0 0-17.769412-4.608 17.769412 17.769412 0 0 0-12.830117 12.8 17.769412 17.769412 0 0 0 4.638117 17.769412L318.704941 451.764706a20.269176 20.269176 0 0 0 13.854118 5.360941 14.938353 14.938353 0 0 0 6.234353-1.264941 17.769412 17.769412 0 0 0 6.053647-3.915294l138.24-138.420706a17.769412 17.769412 0 0 0 0-25.088 17.769412 17.769412 0 0 0-12.438588-5.12v-0.572235zM181.308235 688.429176h320.240941c14.757647 0 26.714353 10.089412 26.714353 22.588236 0 12.438588-11.956706 22.588235-26.714353 22.588235H181.338353c-14.757647 0-26.684235-10.149647-26.684235-22.588235 0-12.498824 11.956706-22.588235 26.684235-22.588236z m0 124.506353h320.240941c14.757647 0 26.714353 10.119529 26.714353 22.588236s-11.956706 22.588235-26.714353 22.588235H181.338353c-14.757647 0-26.684235-10.119529-26.684235-22.588235s11.956706-22.588235 26.684235-22.588236z" fill="#17abe3" p-id="4181"></path><path d="M604.762353 941.176471H90.352941c-20.781176 0-37.647059-16.865882-37.647059-37.647059V90.352941c0-20.781176 16.865882-37.647059 37.647059-37.647059h692.705883c20.781176 0 37.647059 16.865882 37.647058 37.647059v425.472a22.588235 22.588235 0 1 0 45.176471 0V90.352941A82.823529 82.823529 0 0 0 783.058824 7.529412H90.352941A82.823529 82.823529 0 0 0 7.529412 90.352941v813.176471A82.823529 82.823529 0 0 0 90.352941 986.352941h514.409412a22.588235 22.588235 0 0 0 0-45.17647z" fill="#17abe3" p-id="4182"></path><path d="M1021.289412 979.486118l-106.767059-106.767059a177.904941 177.904941 0 1 0-25.088 25.088l106.767059 106.767059a17.859765 17.859765 0 1 0 25.268706-25.298824l-0.180706 0.210824z m-386.258824-218.654118a142.336 142.336 0 1 1 284.672 0 142.336 142.336 0 0 1-284.672 0z" fill="#17abe3" p-id="4183"></path></svg>