<svg xmlns="http://www.w3.org/2000/svg" viewBox="0 0 2048 1024" width="400" height="200">
  <!-- 第一个图标 -->
  <g transform="translate(0, 0)">
    <path d="M644.21888 232.16128H317.80864c-18.0224 0-32.64512 14.45888-32.64512 32.27648s14.62272 32.27648 32.64512 32.27648h326.41024c18.0224 0 32.64512-14.45888 32.64512-32.27648-0.04096-17.85856-14.62272-32.27648-32.64512-32.27648zM644.21888 382.68928H317.80864c-18.0224 0-32.64512 14.45888-32.64512 32.27648s14.62272 32.23552 32.64512 32.23552h326.41024c18.0224 0 32.64512-14.45888 32.64512-32.23552-0.04096-17.85856-14.62272-32.27648-32.64512-32.27648zM470.13888 533.21728H317.80864c-18.0224 0-32.64512 14.45888-32.64512 32.27648s14.62272 32.27648 32.64512 32.27648h152.33024c18.0224 0 32.64512-14.45888 32.64512-32.27648s-14.62272-32.27648-32.64512-32.27648zM532.8896 936.5504l-0.32768-0.24576a25.161728 25.161728 0 0 1-9.4208-22.528l10.8544-101.13024c0.45056-4.62848 2.21184-9.0112 5.03808-12.6976l208.36352-272.384c26.86976-35.10272 77.25056-41.82016 112.39424-14.9504 35.10272 26.86976 41.82016 77.25056 14.9504 112.39424l-208.40448 272.42496c-2.99008 3.8912-7.04512 6.84032-11.6736 8.47872l-97.97632 34.48832a25.6 25.6 0 0 1-23.79776-3.85024z m50.66752-111.49312l-5.85728 54.19008 53.00224-18.6368 203.776-266.40384c9.91232-12.94336 7.41376-31.49824-5.5296-41.41056-12.94336-9.91232-31.49824-7.41376-41.41056 5.5296l-203.9808 266.73152z m0 0" fill="#1296db"></path><path d="M829.15328 113.8688c0-17.8176-14.62272-32.27648-32.64512-32.27648H165.4784c-18.0224 0-32.64512 14.45888-32.64512 32.27648v795.648c0 17.8176 14.62272 32.27648 32.64512 32.27648h303.75936c17.28512 0 32.44032-13.02528 33.46432-30.26944 1.10592-18.71872-13.7216-34.24256-32.19456-34.24256H219.87328l-2.53952-0.16384c-10.97728-1.26976-19.21024-10.4448-19.21024-21.34016v-688.128l0.16384-2.49856c1.31072-10.81344 10.56768-19.00544 21.58592-19.00544h522.24c5.77536 0 11.30496 2.2528 15.40096 6.30784 4.096 4.01408 6.38976 9.50272 6.38976 15.19616v281.23136c0 0.08192 0.08192 0.16384 0.16384 0.16384h64.9216c0.08192 0 0.16384-0.08192 0.16384-0.16384V113.8688z" fill="#1296db"></path><path d="M796.50816 480.70656c-17.94048 0-32.64512-14.70464-32.64512-32.64512V368.31232c0-17.94048 14.70464-32.64512 32.64512-32.64512s32.64512 14.70464 32.64512 32.64512v79.74912c0 17.98144-14.66368 32.64512-32.64512 32.64512z" fill="#1296db"></path>
  </g>

  <!-- 第二个图标 -->
  <g transform="translate(1024, 0)">
    <path d="M395.801418 864.22695c-130.723404-14.524823-254.184397-65.361702-254.184397-123.460993V653.617021c50.836879 43.574468 130.723404 72.624113 225.134752 87.148936 0-21.787234 0-43.574468 7.262411-65.361702-123.460993-21.787234-232.397163-65.361702-232.397163-123.460993V472.056738c65.361702 50.836879 167.035461 79.886525 290.496454 87.148936 14.524823-21.787234 36.312057-43.574468 58.099291-58.099291C315.914894 493.843972 141.617021 435.744681 141.617021 363.120567v-58.09929c72.624113 58.099291 210.609929 94.411348 355.858156 94.411347 145.248227 0 283.234043-36.312057 355.858156-94.411347V363.120567c0 29.049645-29.049645 58.099291-72.624113 79.886525 21.787234 7.262411 43.574468 21.787234 65.361702 29.049646h7.262411v7.262411c21.787234 7.262411 43.574468 29.049645 58.099291 50.836879V196.085106C911.432624 87.148936 729.87234 0 490.212766 0S76.255319 87.148936 76.255319 196.085106v537.41844c0 101.673759 145.248227 181.560284 355.858156 196.085106-14.524823-21.787234-29.049645-43.574468-36.312057-65.361702zM497.475177 65.361702c167.035461 0 355.858156 58.099291 355.858156 130.723404S664.510638 334.070922 497.475177 334.070922c-167.035461 0-355.858156-58.099291-355.858156-130.723404S330.439716 65.361702 497.475177 65.361702z" fill="#1296db"></path><path d="M737.134752 922.326241l-94.411348-72.624113h-14.524822c-7.262411 0-7.262411 7.262411-7.262412 14.524822v43.574468c-43.574468-21.787234-65.361702-65.361702-72.624113-108.93617 0-14.524823-14.524823-21.787234-29.049646-21.787234s-21.787234 14.524823-21.787234 29.049646c7.262411 43.574468 29.049645 87.148936 58.099291 116.198581 21.787234 14.524823 43.574468 36.312057 65.361702 43.574468v43.574468c0 7.262411 0 7.262411 7.262412 7.262412 7.262411 7.262411 7.262411 7.262411 14.524822 7.262411l94.411348-72.624113c0-14.524823 7.262411-21.787234 0-29.049646 7.262411 0 7.262411 0 0 0z m167.035461-196.085106l43.574468-21.787234v-7.262412c0-7.262411 0-7.262411-7.262411-14.524822l-116.198582-43.574468h-14.524823c-7.262411 0-7.262411 7.262411-7.262411 7.262411v123.460993c0 7.262411 0 7.262411 7.262411 7.262411h14.524823l36.312057-21.787234c0 43.574468-14.524823 94.411348-58.099291 123.460993-14.524823 14.524823-14.524823 21.787234-7.262411 36.312057 14.524823 14.524823 21.787234 14.524823 36.312056 0 50.836879-43.574468 79.886525-116.198582 72.624114-188.822695zM664.510638 653.617021c0-7.262411 0-7.262411-7.262411-14.524822l-36.312057-14.524823c43.574468-21.787234 87.148936-29.049645 130.723404-14.524823 14.524823 7.262411 29.049645 0 36.312057-14.524823 7.262411-14.524823 0-29.049645-14.524822-36.312056-65.361702-21.787234-145.248227-7.262411-196.085107 36.312056l-50.836879-21.787234h-7.262412c0 7.262411-7.262411 7.262411 0 14.524823l14.524823 123.460993s0 7.262411 7.262411 7.262411h14.524823L664.510638 653.617021c0 7.262411 0 0 0 0z" fill="#1296db"></path>
  </g>
</svg>
