<?xml version="1.0" standalone="no"?><!DOCTYPE svg PUBLIC "-//W3C//DTD SVG 1.1//EN" "http://www.w3.org/Graphics/SVG/1.1/DTD/svg11.dtd"><svg t="1734773506721" class="icon" viewBox="0 0 1024 1024" version="1.1" xmlns="http://www.w3.org/2000/svg" p-id="1537" xmlns:xlink="http://www.w3.org/1999/xlink" width="200" height="200"><path d="M644.21888 232.16128H317.80864c-18.0224 0-32.64512 14.45888-32.64512 32.27648s14.62272 32.27648 32.64512 32.27648h326.41024c18.0224 0 32.64512-14.45888 32.64512-32.27648-0.04096-17.85856-14.62272-32.27648-32.64512-32.27648zM644.21888 382.68928H317.80864c-18.0224 0-32.64512 14.45888-32.64512 32.27648s14.62272 32.23552 32.64512 32.23552h326.41024c18.0224 0 32.64512-14.45888 32.64512-32.23552-0.04096-17.85856-14.62272-32.27648-32.64512-32.27648zM470.13888 533.21728H317.80864c-18.0224 0-32.64512 14.45888-32.64512 32.27648s14.62272 32.27648 32.64512 32.27648h152.33024c18.0224 0 32.64512-14.45888 32.64512-32.27648s-14.62272-32.27648-32.64512-32.27648zM532.8896 936.5504l-0.32768-0.24576a25.161728 25.161728 0 0 1-9.4208-22.528l10.8544-101.13024c0.45056-4.62848 2.21184-9.0112 5.03808-12.6976l208.36352-272.384c26.86976-35.10272 77.25056-41.82016 112.39424-14.9504 35.10272 26.86976 41.82016 77.25056 14.9504 112.39424l-208.40448 272.42496c-2.99008 3.8912-7.04512 6.84032-11.6736 8.47872l-97.97632 34.48832a25.6 25.6 0 0 1-23.79776-3.85024z m50.66752-111.49312l-5.85728 54.19008 53.00224-18.6368 203.776-266.40384c9.91232-12.94336 7.41376-31.49824-5.5296-41.41056-12.94336-9.91232-31.49824-7.41376-41.41056 5.5296l-203.9808 266.73152z m0 0" fill="#1296db" p-id="1538"></path><path d="M829.15328 113.8688c0-17.8176-14.62272-32.27648-32.64512-32.27648H165.4784c-18.0224 0-32.64512 14.45888-32.64512 32.27648v795.648c0 17.8176 14.62272 32.27648 32.64512 32.27648h303.75936c17.28512 0 32.44032-13.02528 33.46432-30.26944 1.10592-18.71872-13.7216-34.24256-32.19456-34.24256H219.87328l-2.53952-0.16384c-10.97728-1.26976-19.21024-10.4448-19.21024-21.34016v-688.128l0.16384-2.49856c1.31072-10.81344 10.56768-19.00544 21.58592-19.00544h522.24c5.77536 0 11.30496 2.2528 15.40096 6.30784 4.096 4.01408 6.38976 9.50272 6.38976 15.19616v281.23136c0 0.08192 0.08192 0.16384 0.16384 0.16384h64.9216c0.08192 0 0.16384-0.08192 0.16384-0.16384V113.8688z" fill="#1296db" p-id="1539"></path><path d="M796.50816 480.70656c-17.94048 0-32.64512-14.70464-32.64512-32.64512V368.31232c0-17.94048 14.70464-32.64512 32.64512-32.64512s32.64512 14.70464 32.64512 32.64512v79.74912c0 17.98144-14.66368 32.64512-32.64512 32.64512z" fill="#1296db" p-id="1540"></path></svg>