<svg id="SvgjsSvg1006" width="629" height="812" xmlns="http://www.w3.org/2000/svg" version="1.1" xmlns:xlink="http://www.w3.org/1999/xlink" xmlns:svgjs="http://svgjs.com/svgjs"><defs id="SvgjsDefs1007"><pattern patternUnits="userSpaceOnUse" id="pattern_mark_0" width="300" height="300"><text x="150" y="100" fill="rgba(229,229,229,0.8)" font-size="18" transform="rotate(-45, 150, 150)" style="dominant-baseline: middle; text-anchor: middle;"></text></pattern><pattern patternUnits="userSpaceOnUse" id="pattern_mark_1" width="300" height="300"><text x="150" y="200" fill="rgba(229,229,229,0.8)" font-size="18" transform="rotate(-45, 150, 150)" style="dominant-baseline: middle; text-anchor: middle;"></text></pattern><marker id="SvgjsMarker1047" markerWidth="13" markerHeight="9" refX="9.5" refY="4.5" viewBox="0 0 13 9" orient="auto" markerUnits="userSpaceOnUse" stroke-dasharray="0,0"><path id="SvgjsPath1048" d="M0,0 L13,4.5 L0,9 L0,0" fill="#323232" stroke="#323232" stroke-width="1"></path></marker><marker id="SvgjsMarker1051" markerWidth="13" markerHeight="9" refX="9.5" refY="4.5" viewBox="0 0 13 9" orient="auto" markerUnits="userSpaceOnUse" stroke-dasharray="0,0"><path id="SvgjsPath1052" d="M0,0 L13,4.5 L0,9 L0,0" fill="#323232" stroke="#323232" stroke-width="1"></path></marker><marker id="SvgjsMarker1067" markerWidth="13" markerHeight="9" refX="9.5" refY="4.5" viewBox="0 0 13 9" orient="auto" markerUnits="userSpaceOnUse" stroke-dasharray="0,0"><path id="SvgjsPath1068" d="M0,0 L13,4.5 L0,9 L0,0" fill="#323232" stroke="#323232" stroke-width="1"></path></marker><marker id="SvgjsMarker1071" markerWidth="13" markerHeight="9" refX="9.5" refY="4.5" viewBox="0 0 13 9" orient="auto" markerUnits="userSpaceOnUse" stroke-dasharray="0,0"><path id="SvgjsPath1072" d="M0,0 L13,4.5 L0,9 L0,0" fill="#323232" stroke="#323232" stroke-width="1"></path></marker><marker id="SvgjsMarker1075" markerWidth="13" markerHeight="9" refX="9.5" refY="4.5" viewBox="0 0 13 9" orient="auto" markerUnits="userSpaceOnUse" stroke-dasharray="0,0"><path id="SvgjsPath1076" d="M0,0 L13,4.5 L0,9 L0,0" fill="#323232" stroke="#323232" stroke-width="1"></path></marker><marker id="SvgjsMarker1079" markerWidth="13" markerHeight="9" refX="9.5" refY="4.5" viewBox="0 0 13 9" orient="auto" markerUnits="userSpaceOnUse" stroke-dasharray="0,0"><path id="SvgjsPath1080" d="M0,0 L13,4.5 L0,9 L0,0" fill="#323232" stroke="#323232" stroke-width="1"></path></marker><marker id="SvgjsMarker1117" markerWidth="13" markerHeight="9" refX="9.5" refY="4.5" viewBox="0 0 13 9" orient="auto" markerUnits="userSpaceOnUse" stroke-dasharray="0,0"><path id="SvgjsPath1118" d="M0,0 L13,4.5 L0,9 L0,0" fill="#323232" stroke="#323232" stroke-width="1"></path></marker><marker id="SvgjsMarker1121" markerWidth="13" markerHeight="9" refX="9.5" refY="4.5" viewBox="0 0 13 9" orient="auto" markerUnits="userSpaceOnUse" stroke-dasharray="0,0"><path id="SvgjsPath1122" d="M0,0 L13,4.5 L0,9 L0,0" fill="#323232" stroke="#323232" stroke-width="1"></path></marker><marker id="SvgjsMarker1137" markerWidth="13" markerHeight="9" refX="9.5" refY="4.5" viewBox="0 0 13 9" orient="auto" markerUnits="userSpaceOnUse" stroke-dasharray="0,0"><path id="SvgjsPath1138" d="M0,0 L13,4.5 L0,9 L0,0" fill="#323232" stroke="#323232" stroke-width="1"></path></marker><marker id="SvgjsMarker1141" markerWidth="13" markerHeight="9" refX="9.5" refY="4.5" viewBox="0 0 13 9" orient="auto" markerUnits="userSpaceOnUse" stroke-dasharray="0,0"><path id="SvgjsPath1142" d="M0,0 L13,4.5 L0,9 L0,0" fill="#323232" stroke="#323232" stroke-width="1"></path></marker><marker id="SvgjsMarker1157" markerWidth="13" markerHeight="9" refX="9.5" refY="4.5" viewBox="0 0 13 9" orient="auto" markerUnits="userSpaceOnUse" stroke-dasharray="0,0"><path id="SvgjsPath1158" d="M0,0 L13,4.5 L0,9 L0,0" fill="#323232" stroke="#323232" stroke-width="1"></path></marker><marker id="SvgjsMarker1183" markerWidth="13" markerHeight="9" refX="9.5" refY="4.5" viewBox="0 0 13 9" orient="auto" markerUnits="userSpaceOnUse" stroke-dasharray="0,0"><path id="SvgjsPath1184" d="M0,0 L13,4.5 L0,9 L0,0" fill="#323232" stroke="#323232" stroke-width="1"></path></marker><marker id="SvgjsMarker1187" markerWidth="13" markerHeight="9" refX="9.5" refY="4.5" viewBox="0 0 13 9" orient="auto" markerUnits="userSpaceOnUse" stroke-dasharray="0,0"><path id="SvgjsPath1188" d="M0,0 L13,4.5 L0,9 L0,0" fill="#323232" stroke="#323232" stroke-width="1"></path></marker><marker id="SvgjsMarker1191" markerWidth="13" markerHeight="9" refX="9.5" refY="4.5" viewBox="0 0 13 9" orient="auto" markerUnits="userSpaceOnUse" stroke-dasharray="0,0"><path id="SvgjsPath1192" d="M0,0 L13,4.5 L0,9 L0,0" fill="#323232" stroke="#323232" stroke-width="1"></path></marker><marker id="SvgjsMarker1195" markerWidth="13" markerHeight="9" refX="9.5" refY="4.5" viewBox="0 0 13 9" orient="auto" markerUnits="userSpaceOnUse" stroke-dasharray="0,0"><path id="SvgjsPath1196" d="M0,0 L13,4.5 L0,9 L0,0" fill="#323232" stroke="#323232" stroke-width="1"></path></marker><marker id="SvgjsMarker1211" markerWidth="13" markerHeight="9" refX="9.5" refY="4.5" viewBox="0 0 13 9" orient="auto" markerUnits="userSpaceOnUse" stroke-dasharray="0,0"><path id="SvgjsPath1212" d="M0,0 L13,4.5 L0,9 L0,0" fill="#323232" stroke="#323232" stroke-width="1"></path></marker><marker id="SvgjsMarker1215" markerWidth="13" markerHeight="9" refX="9.5" refY="4.5" viewBox="0 0 13 9" orient="auto" markerUnits="userSpaceOnUse" stroke-dasharray="0,0"><path id="SvgjsPath1216" d="M0,0 L13,4.5 L0,9 L0,0" fill="#323232" stroke="#323232" stroke-width="1"></path></marker><marker id="SvgjsMarker1219" markerWidth="13" markerHeight="9" refX="9.5" refY="4.5" viewBox="0 0 13 9" orient="auto" markerUnits="userSpaceOnUse" stroke-dasharray="0,0"><path id="SvgjsPath1220" d="M0,0 L13,4.5 L0,9 L0,0" fill="#323232" stroke="#323232" stroke-width="1"></path></marker></defs><rect id="svgbackgroundid" width="629" height="812" fill="transparent"></rect><rect id="SvgjsRect1009" width="629" height="812" fill="url(#pattern_mark_0)"></rect><rect id="SvgjsRect1010" width="629" height="812" fill="url(#pattern_mark_1)"></rect><g id="SvgjsG1011" transform="translate(54,325)"><path id="SvgjsPath1012" d="M 0 4Q 0 0 4 0L 230 0Q 234 0 234 4L 234 288Q 234 292 230 292L 4 292Q 0 292 0 288Z" stroke="rgba(33,41,48,1)" stroke-width="1.5" fill-opacity="1" fill="#ffffff"></path><g id="SvgjsG1013"><text id="SvgjsText1014" font-family="&quot;Microsoft YaHei&quot;, 微软雅黑, Arial" text-anchor="middle" font-size="13px" width="224px" fill="#323232" font-weight="400" align="middle" lineHeight="125%" anchor="middle" family="&quot;Microsoft YaHei&quot;, 微软雅黑, Arial" size="13px" weight="400" font-style="" opacity="1" y="11.232142857142858" transform="rotate(0)"></text></g></g><g id="SvgjsG1015" transform="translate(114,368)"><path id="SvgjsPath1016" d="M 8.333333333333334 0L 134.66666666666666 0C 145.77777777777777 0 145.77777777777777 25 134.66666666666666 25L 8.333333333333334 25C -2.777777777777778 25 -2.777777777777778 0 8.333333333333334 0Z" stroke="rgba(33,41,48,1)" stroke-width="1.5" fill-opacity="1" fill="#e5f6da"></path><g id="SvgjsG1017"><text id="SvgjsText1018" font-family="&quot;Microsoft YaHei&quot;, 微软雅黑, Arial" text-anchor="middle" font-size="13px" width="123px" fill="#323232" font-weight="400" align="middle" lineHeight="125%" anchor="middle" family="&quot;Microsoft YaHei&quot;, 微软雅黑, Arial" size="13px" weight="400" font-style="" opacity="1" y="1.875" transform="rotate(0)"><tspan id="SvgjsTspan1019" dy="16.25" x="71.5"><tspan id="SvgjsTspan1020" style="">残差连接 &amp; 归一化</tspan></tspan></text></g></g><g id="SvgjsG1021" transform="translate(114,401)"><path id="SvgjsPath1022" d="M 16.666666666666668 0L 126.33333333333333 0C 148.55555555555554 0 148.55555555555554 50 126.33333333333333 50L 16.666666666666668 50C -5.555555555555556 50 -5.555555555555556 0 16.666666666666668 0Z" stroke="rgba(33,41,48,1)" stroke-width="1.5" fill-opacity="1" fill="#a6aef3"></path><g id="SvgjsG1023"><text id="SvgjsText1024" font-family="&quot;Microsoft YaHei&quot;, 微软雅黑, Arial" text-anchor="middle" font-size="13px" width="123px" fill="#323232" font-weight="400" align="middle" lineHeight="125%" anchor="middle" family="&quot;Microsoft YaHei&quot;, 微软雅黑, Arial" size="13px" weight="400" font-style="" opacity="1" y="14.375" transform="rotate(0)"><tspan id="SvgjsTspan1025" dy="16.25" x="71.5"><tspan id="SvgjsTspan1026" style="">前馈网络</tspan></tspan></text></g></g><g id="SvgjsG1027" transform="translate(114,502)"><path id="SvgjsPath1028" d="M 8.333333333333334 0L 134.66666666666666 0C 145.77777777777777 0 145.77777777777777 25 134.66666666666666 25L 8.333333333333334 25C -2.777777777777778 25 -2.777777777777778 0 8.333333333333334 0Z" stroke="rgba(33,41,48,1)" stroke-width="1.5" fill-opacity="1" fill="#e5f6da"></path><g id="SvgjsG1029"><text id="SvgjsText1030" font-family="&quot;Microsoft YaHei&quot;, 微软雅黑, Arial" text-anchor="middle" font-size="13px" width="123px" fill="#323232" font-weight="400" align="middle" lineHeight="125%" anchor="middle" family="&quot;Microsoft YaHei&quot;, 微软雅黑, Arial" size="13px" weight="400" font-style="" opacity="1" y="1.875" transform="rotate(0)"><tspan id="SvgjsTspan1031" dy="16.25" x="71.5"><tspan id="SvgjsTspan1032" style="">残差连接 &amp; 归一化</tspan></tspan></text></g></g><g id="SvgjsG1033" transform="translate(114,535)"><path id="SvgjsPath1034" d="M 16.666666666666668 0L 126.33333333333333 0C 148.55555555555554 0 148.55555555555554 50 126.33333333333333 50L 16.666666666666668 50C -5.555555555555556 50 -5.555555555555556 0 16.666666666666668 0Z" stroke="rgba(33,41,48,1)" stroke-width="1.5" fill-opacity="1" fill="#b7eaeb"></path><g id="SvgjsG1035"><text id="SvgjsText1036" font-family="&quot;Microsoft YaHei&quot;, 微软雅黑, Arial" text-anchor="middle" font-size="13px" width="123px" fill="#323232" font-weight="400" align="middle" lineHeight="125%" anchor="middle" family="&quot;Microsoft YaHei&quot;, 微软雅黑, Arial" size="13px" weight="400" font-style="" opacity="1" y="14.375" transform="rotate(0)"><tspan id="SvgjsTspan1037" dy="16.25" x="71.5"><tspan id="SvgjsTspan1038" style="">多头注意力层</tspan></tspan></text></g></g><g id="SvgjsG1039" transform="translate(114,649)"><path id="SvgjsPath1040" d="M 0 4Q 0 0 4 0L 139 0Q 143 0 143 4L 143 50Q 143 54 139 54L 4 54Q 0 54 0 50Z" stroke="rgba(33,41,48,1)" stroke-width="1.5" fill-opacity="1" fill="#e7ebed"></path><g id="SvgjsG1041"><text id="SvgjsText1042" font-family="&quot;Microsoft YaHei&quot;, 微软雅黑, Arial" text-anchor="middle" font-size="13px" width="123px" fill="#323232" font-weight="400" align="middle" lineHeight="125%" anchor="middle" family="&quot;Microsoft YaHei&quot;, 微软雅黑, Arial" size="13px" weight="400" font-style="" opacity="1" y="16.375" transform="rotate(0)"><tspan id="SvgjsTspan1043" dy="16.25" x="71.5"><tspan id="SvgjsTspan1044" style="">输入嵌入层</tspan></tspan></text></g></g><g id="SvgjsG1045"><path id="SvgjsPath1046" d="M185.5 648.25L185.5 587.7" stroke="#323232" stroke-width="1.5" fill="none" marker-end="url(#SvgjsMarker1047)"></path></g><g id="SvgjsG1049"><path id="SvgjsPath1050" d="M185.5 746.25L185.5 725L185.5 725L185.5 705.7" stroke="#323232" stroke-width="1.5" fill="none" marker-end="url(#SvgjsMarker1051)"></path></g><g id="SvgjsG1053" transform="translate(135.5,747)"><path id="SvgjsPath1054" d="M 0 0L 100 0L 100 40L 0 40Z" stroke="none" fill="none"></path><g id="SvgjsG1055"><text id="SvgjsText1056" font-family="&quot;Microsoft YaHei&quot;, 微软雅黑, Arial" text-anchor="middle" font-size="13px" width="100px" fill="#323232" font-weight="400" align="middle" lineHeight="125%" anchor="middle" family="&quot;Microsoft YaHei&quot;, 微软雅黑, Arial" size="13px" weight="400" font-style="" opacity="1" y="9.375" transform="rotate(0)"><tspan id="SvgjsTspan1057" dy="16.25" x="50"><tspan id="SvgjsTspan1058" style="">输入序列</tspan></tspan></text></g></g><g id="SvgjsG1059" transform="translate(110,609)"><path id="SvgjsPath1060" d="M 0 0L 53.5 0L 53.5 40L 0 40Z" stroke="none" fill="none"></path><g id="SvgjsG1061"><text id="SvgjsText1062" font-family="&quot;Microsoft YaHei&quot;, 微软雅黑, Arial" text-anchor="middle" font-size="13px" width="54px" fill="#323232" font-weight="400" align="middle" lineHeight="125%" anchor="middle" family="&quot;Microsoft YaHei&quot;, 微软雅黑, Arial" size="13px" weight="400" font-style="" opacity="1" y="9.375" transform="rotate(0)"><tspan id="SvgjsTspan1063" dy="16.25" x="27"><tspan id="SvgjsTspan1064" style="">位置编码</tspan></tspan></text></g></g><g id="SvgjsG1065"><path id="SvgjsPath1066" d="M164.25 629L183 629" stroke="#323232" stroke-width="1.5" fill="none" marker-end="url(#SvgjsMarker1067)"></path></g><g id="SvgjsG1069"><path id="SvgjsPath1070" d="M185 607L68 607L68 514.5L111.30000000000001 514.5" stroke="#323232" stroke-width="1.5" fill="none" marker-end="url(#SvgjsMarker1071)"></path></g><g id="SvgjsG1073"><path id="SvgjsPath1074" d="M185.5 501.25L185.5 453.7" stroke="#323232" stroke-width="1.5" fill="none" marker-end="url(#SvgjsMarker1075)"></path></g><g id="SvgjsG1077"><path id="SvgjsPath1078" d="M187 474L84 474L84 380.5L111.30000000000001 380.5" stroke="#323232" stroke-width="1.5" fill="none" marker-end="url(#SvgjsMarker1079)"></path></g><g id="SvgjsG1081" transform="translate(25,320)"><path id="SvgjsPath1082" d="M 0 0L 100 0L 100 40L 0 40Z" stroke="none" fill="none"></path><g id="SvgjsG1083"><text id="SvgjsText1084" font-family="&quot;Microsoft YaHei&quot;, 微软雅黑, Arial" text-anchor="middle" font-size="13px" width="100px" fill="#323232" font-weight="400" align="middle" lineHeight="125%" anchor="middle" family="&quot;Microsoft YaHei&quot;, 微软雅黑, Arial" size="13px" weight="400" font-style="" opacity="1" y="9.375" transform="rotate(0)"><tspan id="SvgjsTspan1085" dy="16.25" x="50"><tspan id="SvgjsTspan1086" style="">N层</tspan></tspan></text></g></g><g id="SvgjsG1087" transform="translate(343,226.33333333333337)"><path id="SvgjsPath1088" d="M 0 4Q 0 0 4 0L 257 0Q 261 0 261 4L 261 386.66666666666663Q 261 390.66666666666663 257 390.66666666666663L 4 390.66666666666663Q 0 390.66666666666663 0 386.66666666666663Z" stroke="rgba(33,41,48,1)" stroke-width="1.5" fill-opacity="1" fill="#ffffff"></path><g id="SvgjsG1089"><text id="SvgjsText1090" font-family="&quot;Microsoft YaHei&quot;, 微软雅黑, Arial" text-anchor="middle" font-size="13px" width="251px" fill="#323232" font-weight="400" align="middle" lineHeight="125%" anchor="middle" family="&quot;Microsoft YaHei&quot;, 微软雅黑, Arial" size="13px" weight="400" font-style="" opacity="1" y="18.2797619047619" transform="rotate(0)"></text></g></g><g id="SvgjsG1091" transform="translate(401,368)"><path id="SvgjsPath1092" d="M 8.333333333333334 0L 134.66666666666666 0C 145.77777777777777 0 145.77777777777777 25 134.66666666666666 25L 8.333333333333334 25C -2.777777777777778 25 -2.777777777777778 0 8.333333333333334 0Z" stroke="rgba(33,41,48,1)" stroke-width="1.5" fill-opacity="1" fill="#e5f6da"></path><g id="SvgjsG1093"><text id="SvgjsText1094" font-family="&quot;Microsoft YaHei&quot;, 微软雅黑, Arial" text-anchor="middle" font-size="13px" width="123px" fill="#323232" font-weight="400" align="middle" lineHeight="125%" anchor="middle" family="&quot;Microsoft YaHei&quot;, 微软雅黑, Arial" size="13px" weight="400" font-style="" opacity="1" y="1.875" transform="rotate(0)"><tspan id="SvgjsTspan1095" dy="16.25" x="71.5"><tspan id="SvgjsTspan1096" style="">残差连接 &amp; 归一化</tspan></tspan></text></g></g><g id="SvgjsG1097" transform="translate(401,502)"><path id="SvgjsPath1098" d="M 8.333333333333334 0L 134.66666666666666 0C 145.77777777777777 0 145.77777777777777 25 134.66666666666666 25L 8.333333333333334 25C -2.777777777777778 25 -2.777777777777778 0 8.333333333333334 0Z" stroke="rgba(33,41,48,1)" stroke-width="1.5" fill-opacity="1" fill="#e5f6da"></path><g id="SvgjsG1099"><text id="SvgjsText1100" font-family="&quot;Microsoft YaHei&quot;, 微软雅黑, Arial" text-anchor="middle" font-size="13px" width="123px" fill="#323232" font-weight="400" align="middle" lineHeight="125%" anchor="middle" family="&quot;Microsoft YaHei&quot;, 微软雅黑, Arial" size="13px" weight="400" font-style="" opacity="1" y="1.875" transform="rotate(0)"><tspan id="SvgjsTspan1101" dy="16.25" x="71.5"><tspan id="SvgjsTspan1102" style="">残差连接 &amp; 归一化</tspan></tspan></text></g></g><g id="SvgjsG1103" transform="translate(401,535)"><path id="SvgjsPath1104" d="M 16.666666666666668 0L 126.33333333333333 0C 148.55555555555554 0 148.55555555555554 50 126.33333333333333 50L 16.666666666666668 50C -5.555555555555556 50 -5.555555555555556 0 16.666666666666668 0Z" stroke="rgba(33,41,48,1)" stroke-width="1.5" fill-opacity="1" fill="#b7eaeb"></path><g id="SvgjsG1105"><text id="SvgjsText1106" font-family="&quot;Microsoft YaHei&quot;, 微软雅黑, Arial" text-anchor="middle" font-size="13px" width="123px" fill="#323232" font-weight="400" align="middle" lineHeight="125%" anchor="middle" family="&quot;Microsoft YaHei&quot;, 微软雅黑, Arial" size="13px" weight="400" font-style="" opacity="1" y="14.375" transform="rotate(0)"><tspan id="SvgjsTspan1107" dy="16.25" x="71.5"><tspan id="SvgjsTspan1108" style="">掩码多头注意力层</tspan></tspan></text></g></g><g id="SvgjsG1109" transform="translate(401,649)"><path id="SvgjsPath1110" d="M 0 4Q 0 0 4 0L 139 0Q 143 0 143 4L 143 50Q 143 54 139 54L 4 54Q 0 54 0 50Z" stroke="rgba(33,41,48,1)" stroke-width="1.5" fill-opacity="1" fill="#e7ebed"></path><g id="SvgjsG1111"><text id="SvgjsText1112" font-family="&quot;Microsoft YaHei&quot;, 微软雅黑, Arial" text-anchor="middle" font-size="13px" width="123px" fill="#323232" font-weight="400" align="middle" lineHeight="125%" anchor="middle" family="&quot;Microsoft YaHei&quot;, 微软雅黑, Arial" size="13px" weight="400" font-style="" opacity="1" y="16.375" transform="rotate(0)"><tspan id="SvgjsTspan1113" dy="16.25" x="71.5"><tspan id="SvgjsTspan1114" style="">输出嵌入层</tspan></tspan></text></g></g><g id="SvgjsG1115"><path id="SvgjsPath1116" d="M472.5 648.25L472.5 587.7" stroke="#323232" stroke-width="1.5" fill="none" marker-end="url(#SvgjsMarker1117)"></path></g><g id="SvgjsG1119"><path id="SvgjsPath1120" d="M472.5 746.25L472.5 725L472.5 725L472.5 705.7" stroke="#323232" stroke-width="1.5" fill="none" marker-end="url(#SvgjsMarker1121)"></path></g><g id="SvgjsG1123" transform="translate(422.5,747)"><path id="SvgjsPath1124" d="M 0 0L 100 0L 100 40L 0 40Z" stroke="none" fill="none"></path><g id="SvgjsG1125"><text id="SvgjsText1126" font-family="&quot;Microsoft YaHei&quot;, 微软雅黑, Arial" text-anchor="middle" font-size="13px" width="100px" fill="#323232" font-weight="400" align="middle" lineHeight="125%" anchor="middle" family="&quot;Microsoft YaHei&quot;, 微软雅黑, Arial" size="13px" weight="400" font-style="" opacity="1" y="9.375" transform="rotate(0)"><tspan id="SvgjsTspan1127" dy="16.25" x="50"><tspan id="SvgjsTspan1128" style="">输出序列</tspan></tspan></text></g></g><g id="SvgjsG1129" transform="translate(397,609)"><path id="SvgjsPath1130" d="M 0 0L 53.5 0L 53.5 40L 0 40Z" stroke="none" fill="none"></path><g id="SvgjsG1131"><text id="SvgjsText1132" font-family="&quot;Microsoft YaHei&quot;, 微软雅黑, Arial" text-anchor="middle" font-size="13px" width="54px" fill="#323232" font-weight="400" align="middle" lineHeight="125%" anchor="middle" family="&quot;Microsoft YaHei&quot;, 微软雅黑, Arial" size="13px" weight="400" font-style="" opacity="1" y="9.375" transform="rotate(0)"><tspan id="SvgjsTspan1133" dy="16.25" x="27"><tspan id="SvgjsTspan1134" style="">位置编码</tspan></tspan></text></g></g><g id="SvgjsG1135"><path id="SvgjsPath1136" d="M451.25 629L470 629" stroke="#323232" stroke-width="1.5" fill="none" marker-end="url(#SvgjsMarker1137)"></path></g><g id="SvgjsG1139"><path id="SvgjsPath1140" d="M472.5 501.25L472.5 453.7" stroke="#323232" stroke-width="1.5" fill="none" marker-end="url(#SvgjsMarker1141)"></path></g><g id="SvgjsG1143" transform="translate(401,401)"><path id="SvgjsPath1144" d="M 16.666666666666668 0L 126.33333333333333 0C 148.55555555555554 0 148.55555555555554 50 126.33333333333333 50L 16.666666666666668 50C -5.555555555555556 50 -5.555555555555556 0 16.666666666666668 0Z" stroke="rgba(33,41,48,1)" stroke-width="1.5" fill-opacity="1" fill="#b7eaeb"></path><g id="SvgjsG1145"><text id="SvgjsText1146" font-family="&quot;Microsoft YaHei&quot;, 微软雅黑, Arial" text-anchor="middle" font-size="13px" width="123px" fill="#323232" font-weight="400" align="middle" lineHeight="125%" anchor="middle" family="&quot;Microsoft YaHei&quot;, 微软雅黑, Arial" size="13px" weight="400" font-style="" opacity="1" y="14.375" transform="rotate(0)"><tspan id="SvgjsTspan1147" dy="16.25" x="71.5"><tspan id="SvgjsTspan1148" style="">多头注意力层</tspan></tspan></text></g></g><g id="SvgjsG1149" transform="translate(309.33333333333337,219)"><path id="SvgjsPath1150" d="M 0 0L 100 0L 100 40L 0 40Z" stroke="none" fill="none"></path><g id="SvgjsG1151"><text id="SvgjsText1152" font-family="&quot;Microsoft YaHei&quot;, 微软雅黑, Arial" text-anchor="middle" font-size="13px" width="100px" fill="#323232" font-weight="400" align="middle" lineHeight="125%" anchor="middle" family="&quot;Microsoft YaHei&quot;, 微软雅黑, Arial" size="13px" weight="400" font-style="" opacity="1" y="9.375" transform="rotate(0)"><tspan id="SvgjsTspan1153" dy="16.25" x="50"><tspan id="SvgjsTspan1154" style="">N层</tspan></tspan></text></g></g><g id="SvgjsG1155"><path id="SvgjsPath1156" d="M472 609L568 609L568 514.5L546.7 514.5" stroke="#323232" stroke-width="1.5" fill="none" marker-end="url(#SvgjsMarker1157)"></path></g><g id="SvgjsG1159" transform="translate(402,242)"><path id="SvgjsPath1160" d="M 8.333333333333334 0L 134.66666666666666 0C 145.77777777777777 0 145.77777777777777 25 134.66666666666666 25L 8.333333333333334 25C -2.777777777777778 25 -2.777777777777778 0 8.333333333333334 0Z" stroke="rgba(33,41,48,1)" stroke-width="1.5" fill-opacity="1" fill="#e5f6da"></path><g id="SvgjsG1161"><text id="SvgjsText1162" font-family="&quot;Microsoft YaHei&quot;, 微软雅黑, Arial" text-anchor="middle" font-size="13px" width="123px" fill="#323232" font-weight="400" align="middle" lineHeight="125%" anchor="middle" family="&quot;Microsoft YaHei&quot;, 微软雅黑, Arial" size="13px" weight="400" font-style="" opacity="1" y="1.875" transform="rotate(0)"><tspan id="SvgjsTspan1163" dy="16.25" x="71.5"><tspan id="SvgjsTspan1164" style="">残差连接 &amp; 归一化</tspan></tspan></text></g></g><g id="SvgjsG1165" transform="translate(402,275)"><path id="SvgjsPath1166" d="M 16.666666666666668 0L 126.33333333333333 0C 148.55555555555554 0 148.55555555555554 50 126.33333333333333 50L 16.666666666666668 50C -5.555555555555556 50 -5.555555555555556 0 16.666666666666668 0Z" stroke="rgba(33,41,48,1)" stroke-width="1.5" fill-opacity="1" fill="#a6aef3"></path><g id="SvgjsG1167"><text id="SvgjsText1168" font-family="&quot;Microsoft YaHei&quot;, 微软雅黑, Arial" text-anchor="middle" font-size="13px" width="123px" fill="#323232" font-weight="400" align="middle" lineHeight="125%" anchor="middle" family="&quot;Microsoft YaHei&quot;, 微软雅黑, Arial" size="13px" weight="400" font-style="" opacity="1" y="14.375" transform="rotate(0)"><tspan id="SvgjsTspan1169" dy="16.25" x="71.5"><tspan id="SvgjsTspan1170" style="">前馈网络</tspan></tspan></text></g></g><g id="SvgjsG1171"><path id="SvgjsPath1172" d="M185.5 527.75L185.5 531L185.5 531L185.5 534.25" stroke="#323232" stroke-width="1.5" fill="none"></path></g><g id="SvgjsG1173"><path id="SvgjsPath1174" d="M185.5 400.25L185.5 397L185.5 397L185.5 393.75" stroke="#323232" stroke-width="1.5" fill="none"></path></g><g id="SvgjsG1175"><path id="SvgjsPath1176" d="M472.5 527.75L472.5 531L472.5 531L472.5 534.25" stroke="#323232" stroke-width="1.5" fill="none"></path></g><g id="SvgjsG1177"><path id="SvgjsPath1178" d="M473.5 267.75L473.5 271L473.5 271L473.5 274.25" stroke="#323232" stroke-width="1.5" fill="none"></path></g><g id="SvgjsG1179"><path id="SvgjsPath1180" d="M472.5 393.75L472.5 397L472.5 397L472.5 400.25" stroke="#323232" stroke-width="1.5" fill="none"></path></g><g id="SvgjsG1181"><path id="SvgjsPath1182" d="M472.5 367.25L472.5 327.7" stroke="#323232" stroke-width="1.5" fill="none" marker-end="url(#SvgjsMarker1183)"></path></g><g id="SvgjsG1185"><path id="SvgjsPath1186" d="M185.5 367.25L185.5 260L329 260L329 481L445 481L445 453.7" stroke="#323232" stroke-width="1.5" fill="none" marker-end="url(#SvgjsMarker1187)"></path></g><g id="SvgjsG1189"><path id="SvgjsPath1190" d="M473 480L574 480L574 380.5L546.7 380.5" stroke="#323232" stroke-width="1.5" fill="none" marker-end="url(#SvgjsMarker1191)"></path></g><g id="SvgjsG1193"><path id="SvgjsPath1194" d="M472 350L575 350L575 254.5L547.7 254.5" stroke="#323232" stroke-width="1.5" fill="none" marker-end="url(#SvgjsMarker1195)"></path></g><g id="SvgjsG1197" transform="translate(423.5,153)"><path id="SvgjsPath1198" d="M 16.666666666666668 0L 83.33333333333333 0C 105.55555555555556 0 105.55555555555556 50 83.33333333333333 50L 16.666666666666668 50C -5.555555555555556 50 -5.555555555555556 0 16.666666666666668 0Z" stroke="rgba(33,41,48,1)" stroke-width="1.5" fill-opacity="1" fill="#f1ac6a"></path><g id="SvgjsG1199"><text id="SvgjsText1200" font-family="&quot;Microsoft YaHei&quot;, 微软雅黑, Arial" text-anchor="middle" font-size="13px" width="80px" fill="#323232" font-weight="400" align="middle" lineHeight="125%" anchor="middle" family="&quot;Microsoft YaHei&quot;, 微软雅黑, Arial" size="13px" weight="400" font-style="" opacity="1" y="14.375" transform="rotate(0)"><tspan id="SvgjsTspan1201" dy="16.25" x="50"><tspan id="SvgjsTspan1202" style="">线性层</tspan></tspan></text></g></g><g id="SvgjsG1203" transform="translate(423.5,74.00000000000004)"><path id="SvgjsPath1204" d="M 16.666666666666668 0L 83.33333333333333 0C 105.55555555555556 0 105.55555555555556 50 83.33333333333333 50L 16.666666666666668 50C -5.555555555555556 50 -5.555555555555556 0 16.666666666666668 0Z" stroke="rgba(33,41,48,1)" stroke-width="1.5" fill-opacity="1" fill="#fcf9ea"></path><g id="SvgjsG1205"><text id="SvgjsText1206" font-family="&quot;Microsoft YaHei&quot;, 微软雅黑, Arial" text-anchor="middle" font-size="13px" width="80px" fill="#323232" font-weight="400" align="middle" lineHeight="125%" anchor="middle" family="&quot;Microsoft YaHei&quot;, 微软雅黑, Arial" size="13px" weight="400" font-style="" opacity="1" y="14.375" transform="rotate(0)"><tspan id="SvgjsTspan1207" dy="16.25" x="50"><tspan id="SvgjsTspan1208" style="">Softmax</tspan></tspan></text></g></g><g id="SvgjsG1209"><path id="SvgjsPath1210" d="M473.5 241.25L473.5 222.5L473.5 222.5L473.5 205.7" stroke="#323232" stroke-width="1.5" fill="none" marker-end="url(#SvgjsMarker1211)"></path></g><g id="SvgjsG1213"><path id="SvgjsPath1214" d="M473.5 152.25L473.5 138.50000000000003L473.5 138.50000000000003L473.5 126.70000000000005" stroke="#323232" stroke-width="1.5" fill="none" marker-end="url(#SvgjsMarker1215)"></path></g><g id="SvgjsG1217"><path id="SvgjsPath1218" d="M473.5 73.25000000000004L473.5 60.166666666666686L473.5 60.166666666666686L473.5 49.03333333333334" stroke="#323232" stroke-width="1.5" fill="none" marker-end="url(#SvgjsMarker1219)"></path></g><g id="SvgjsG1221" transform="translate(423.5,25)"><path id="SvgjsPath1222" d="M 0 0L 100 0L 100 21.333333333333336L 0 21.333333333333336Z" stroke="none" fill="none"></path><g id="SvgjsG1223"><text id="SvgjsText1224" font-family="&quot;Microsoft YaHei&quot;, 微软雅黑, Arial" text-anchor="middle" font-size="13px" width="100px" fill="#323232" font-weight="400" align="middle" lineHeight="125%" anchor="middle" family="&quot;Microsoft YaHei&quot;, 微软雅黑, Arial" size="13px" weight="400" font-style="" opacity="1" y="0.04166666666666785" transform="rotate(0)"><tspan id="SvgjsTspan1225" dy="16.25" x="50"><tspan id="SvgjsTspan1226" style="">输出概率</tspan></tspan></text></g></g><g id="SvgjsG1227"></g></svg>