<svg id="SvgjsSvg2350" width="768" height="478" xmlns="http://www.w3.org/2000/svg" version="1.1" xmlns:xlink="http://www.w3.org/1999/xlink" xmlns:svgjs="http://svgjs.com/svgjs"><defs id="SvgjsDefs2351"><pattern patternUnits="userSpaceOnUse" id="pattern_mark_0" width="300" height="300"><text x="150" y="100" fill="rgba(229,229,229,0.8)" font-size="18" transform="rotate(-45, 150, 150)" style="dominant-baseline: middle; text-anchor: middle;"></text></pattern><pattern patternUnits="userSpaceOnUse" id="pattern_mark_1" width="300" height="300"><text x="150" y="200" fill="rgba(229,229,229,0.8)" font-size="18" transform="rotate(-45, 150, 150)" style="dominant-baseline: middle; text-anchor: middle;"></text></pattern><marker id="SvgjsMarker2373" markerWidth="13" markerHeight="9" refX="9.5" refY="4.5" viewBox="0 0 13 9" orient="auto" markerUnits="userSpaceOnUse" stroke-dasharray="0,0"><path id="SvgjsPath2374" d="M0,0 L13,4.5 L0,9 L0,0" fill="#323232" stroke="#323232" stroke-width="1"></path></marker><marker id="SvgjsMarker2389" markerWidth="13" markerHeight="9" refX="9.5" refY="4.5" viewBox="0 0 13 9" orient="auto" markerUnits="userSpaceOnUse" stroke-dasharray="0,0"><path id="SvgjsPath2390" d="M0,0 L13,4.5 L0,9 L0,0" fill="#323232" stroke="#323232" stroke-width="1"></path></marker><marker id="SvgjsMarker2411" markerWidth="13" markerHeight="9" refX="9.5" refY="4.5" viewBox="0 0 13 9" orient="auto" markerUnits="userSpaceOnUse" stroke-dasharray="0,0"><path id="SvgjsPath2412" d="M0,0 L13,4.5 L0,9 L0,0" fill="#323232" stroke="#323232" stroke-width="1"></path></marker><marker id="SvgjsMarker2415" markerWidth="13" markerHeight="9" refX="9.5" refY="4.5" viewBox="0 0 13 9" orient="auto" markerUnits="userSpaceOnUse" stroke-dasharray="0,0"><path id="SvgjsPath2416" d="M0,0 L13,4.5 L0,9 L0,0" fill="#323232" stroke="#323232" stroke-width="1"></path></marker></defs><rect id="svgbackgroundid" width="768" height="478" fill="transparent"></rect><rect id="SvgjsRect2353" width="768" height="478" fill="url(#pattern_mark_0)"></rect><rect id="SvgjsRect2354" width="768" height="478" fill="url(#pattern_mark_1)"></rect><g id="SvgjsG2355" transform="translate(25,121)"><path id="SvgjsPath2356" d="M 0 4Q 0 0 4 0L 714 0Q 718 0 718 4L 718 236Q 718 240 714 240L 4 240Q 0 240 0 236Z" stroke="rgba(33,41,48,1)" stroke-width="1.5" fill-opacity="1" fill="#ffffff"></path><g id="SvgjsG2357"><text id="SvgjsText2358" font-family="&quot;Microsoft YaHei&quot;, 微软雅黑, Arial" text-anchor="middle" font-size="13px" width="708px" fill="#323232" font-weight="400" align="middle" lineHeight="125%" anchor="middle" family="&quot;Microsoft YaHei&quot;, 微软雅黑, Arial" size="13px" weight="400" font-style="" opacity="1" y="7.517857142857142" transform="rotate(0)"></text></g></g><g id="SvgjsG2359" transform="translate(48,25)"><path id="SvgjsPath2360" d="M 0 0L 96 0L 96 54L 0 54Z" stroke="rgba(33,41,48,1)" stroke-width="1.5" fill-opacity="1" fill="#fadcdb"></path><g id="SvgjsG2361"><text id="SvgjsText2362" font-family="&quot;Microsoft YaHei&quot;, 微软雅黑, Arial" text-anchor="middle" font-size="13px" width="76px" fill="#323232" font-weight="400" align="middle" lineHeight="125%" anchor="middle" family="&quot;Microsoft YaHei&quot;, 微软雅黑, Arial" size="13px" weight="400" font-style="" opacity="1" y="16.375" transform="rotate(0)"><tspan id="SvgjsTspan2363" dy="16.25" x="48"><tspan id="SvgjsTspan2364" style="">输入序列</tspan></tspan></text></g></g><g id="SvgjsG2365" transform="translate(32,163)"><path id="SvgjsPath2366" d="M 0 0L 128 0L 128 54L 0 54Z" stroke="rgba(33,41,48,1)" stroke-width="1.5" fill-opacity="1" fill="#dbf5f5"></path><g id="SvgjsG2367"><text id="SvgjsText2368" font-family="&quot;Microsoft YaHei&quot;, 微软雅黑, Arial" text-anchor="middle" font-size="13px" width="108px" fill="#323232" font-weight="400" align="middle" lineHeight="125%" anchor="middle" family="&quot;Microsoft YaHei&quot;, 微软雅黑, Arial" size="13px" weight="400" font-style="" opacity="1" y="16.375" transform="rotate(0)"><tspan id="SvgjsTspan2369" dy="16.25" x="64"><tspan id="SvgjsTspan2370" style="">Transformers层</tspan></tspan></text></g></g><g id="SvgjsG2371"><path id="SvgjsPath2372" d="M96 79.75L96 121L96 121L96 160.3" stroke="#323232" stroke-width="1.5" fill="none" marker-end="url(#SvgjsMarker2373)"></path></g><g id="SvgjsG2375" transform="translate(281,163)"><path id="SvgjsPath2376" d="M 0 4Q 0 0 4 0L 154 0Q 158 0 158 4L 158 152Q 158 156 154 156L 4 156Q 0 156 0 152Z" stroke="rgba(33,41,48,1)" stroke-width="1.5" fill-opacity="1" fill="#fcf9ea"></path><g id="SvgjsG2377"><text id="SvgjsText2378" font-family="&quot;Microsoft YaHei&quot;, 微软雅黑, Arial" text-anchor="middle" font-size="13px" width="138px" fill="#323232" font-weight="400" align="middle" lineHeight="125%" anchor="middle" family="&quot;Microsoft YaHei&quot;, 微软雅黑, Arial" size="13px" weight="400" font-style="" opacity="1" y="42.875" transform="rotate(0)"><tspan id="SvgjsTspan2379" dy="16.25" x="79"><tspan id="SvgjsTspan2380" style="">token1：70%</tspan></tspan><tspan id="SvgjsTspan2381" dy="16.25" x="79"><tspan id="SvgjsTspan2382" style="">token2：20%</tspan></tspan><tspan id="SvgjsTspan2383" dy="16.25" x="79"><tspan id="SvgjsTspan2384" style="">token3：5%</tspan></tspan><tspan id="SvgjsTspan2385" dy="16.25" x="79"><tspan id="SvgjsTspan2386" style="">.....</tspan></tspan></text></g></g><g id="SvgjsG2387"><path id="SvgjsPath2388" d="M160.75 190L220.5 190L220.5 190L278.3 190" stroke="#323232" stroke-width="1.5" fill="none" marker-end="url(#SvgjsMarker2389)"></path></g><g id="SvgjsG2391" transform="translate(170.5,158)"><path id="SvgjsPath2392" d="M 0 0L 100 0L 100 40L 0 40Z" stroke="none" fill="none"></path><g id="SvgjsG2393"><text id="SvgjsText2394" font-family="&quot;Microsoft YaHei&quot;, 微软雅黑, Arial" text-anchor="middle" font-size="13px" width="100px" fill="#323232" font-weight="400" align="middle" lineHeight="125%" anchor="middle" family="&quot;Microsoft YaHei&quot;, 微软雅黑, Arial" size="13px" weight="400" font-style="" opacity="1" y="9.375" transform="rotate(0)"><tspan id="SvgjsTspan2395" dy="16.25" x="50"><tspan id="SvgjsTspan2396" style="">预测token</tspan></tspan></text></g></g><g id="SvgjsG2397" transform="translate(35.75,301)"><path id="SvgjsPath2398" d="M 0 0L 120.5 0L 120.5 46L 0 46Z" stroke="none" fill="none"></path><g id="SvgjsG2399"><text id="SvgjsText2400" font-family="&quot;Microsoft YaHei&quot;, 微软雅黑, Arial" text-anchor="middle" font-size="13px" width="121px" fill="#323232" font-weight="400" align="middle" lineHeight="125%" anchor="middle" family="&quot;Microsoft YaHei&quot;, 微软雅黑, Arial" size="13px" weight="400" font-style="" opacity="1" y="12.375" transform="rotate(0)"><tspan id="SvgjsTspan2401" dy="16.25" x="60.5"><tspan id="SvgjsTspan2402" style="">语言模型</tspan></tspan></text></g></g><g id="SvgjsG2403" transform="translate(563.75,251)"><path id="SvgjsPath2404" d="M 0 0L 128 0L 128 54L 0 54Z" stroke="rgba(33,41,48,1)" stroke-width="1.5" fill-opacity="1" fill="#dbf5f5"></path><g id="SvgjsG2405"><text id="SvgjsText2406" font-family="&quot;Microsoft YaHei&quot;, 微软雅黑, Arial" text-anchor="middle" font-size="13px" width="108px" fill="#323232" font-weight="400" align="middle" lineHeight="125%" anchor="middle" family="&quot;Microsoft YaHei&quot;, 微软雅黑, Arial" size="13px" weight="400" font-style="" opacity="1" y="16.375" transform="rotate(0)"><tspan id="SvgjsTspan2407" dy="16.25" x="64"><tspan id="SvgjsTspan2408" style="">解码器</tspan></tspan></text></g></g><g id="SvgjsG2409"><path id="SvgjsPath2410" d="M439.75 278L501.375 278L501.375 278L561.05 278" stroke="#323232" stroke-width="1.5" fill="none" marker-end="url(#SvgjsMarker2411)"></path></g><g id="SvgjsG2413"><path id="SvgjsPath2414" d="M627.75 305.75L627.75 352L627.75 352L627.75 396.29999999999995" stroke="#323232" stroke-width="1.5" fill="none" marker-end="url(#SvgjsMarker2415)"></path></g><g id="SvgjsG2417" transform="translate(579.75,399)"><path id="SvgjsPath2418" d="M 0 0L 96 0L 96 54L 0 54Z" stroke="rgba(33,41,48,1)" stroke-width="1.5" fill-opacity="1" fill="#fadcdb"></path><g id="SvgjsG2419"><text id="SvgjsText2420" font-family="&quot;Microsoft YaHei&quot;, 微软雅黑, Arial" text-anchor="middle" font-size="13px" width="76px" fill="#323232" font-weight="400" align="middle" lineHeight="125%" anchor="middle" family="&quot;Microsoft YaHei&quot;, 微软雅黑, Arial" size="13px" weight="400" font-style="" opacity="1" y="16.375" transform="rotate(0)"><tspan id="SvgjsTspan2421" dy="16.25" x="48"><tspan id="SvgjsTspan2422" style="">输出序列</tspan></tspan></text></g></g><g id="SvgjsG2423"></g></svg>